# Aspose.3D Wavefront OBJ Exporter
# Copyright 2004-2023 Aspose Pty Ltd.
# File created: 07/17/2023 21:10:40


#
# object obj_57500380
#

v 0.05314413458108902 -0.09606076776981354 0.04324374347925186
v 0.02361222170293331 -0.04337887465953827 0.09048638492822648
v -0.00462845852598547 -0.1068141907453537 0.06472747027873993
v -0.10589427500963212 -0.01393435522913932 0.04779548197984695
v -0.07247217744588852 0.05474238097667694 0.0407627522945404
v -0.11436842381954194 0.03238572925329208 -0.00606526806950569
v -0.05077604204416275 -0.02318841591477394 0.09034660458564758
v -0.04794882237911224 0.00349257281050086 -0.11949948221445084
v 0.00140128203202039 -0.04293839633464813 -0.11948317289352416
v -0.09024182707071304 -0.10670394450426102 -0.034445870667696
v -0.07859709113836288 0.07266831398010254 -0.03778427094221115
v -0.01597274281084537 0.05049925297498703 -0.1154358983039856
v 0.06552869081497192 -0.10570375621318818 -0.00795604474842548
v 0.0910039022564888 0.00207417248748242 0.03506063669919967
v 0.06737192720174789 -0.02917424216866493 -0.10575161874294282
v 0.06658568978309631 0.03008019365370273 -0.11585824191570282
v 0.00406190706416964 0.10032694786787034 -0.0296274684369564
v 0.07795464247465134 0.05129754543304443 -0.01202160399407148
v 0.01739875227212906 -0.10761389881372452 -0.05649811774492264
v -0.08635036647319794 -0.09655365347862244 0.04117040708661079
v 0.01504259742796421 0.05581259727478027 0.0678442046046257
# 21 vertices

vn 0.38254818320274352 -0.48870521783828736 0.78410720825195312
vn -0.76635396480560304 0.42250847816467288 0.48392987251281736
vn -0.53799402713775632 0.34077194333076476 0.77099740505218512
vn -0.42080116271972656 -0.44753435254096984 -0.78907495737075808
vn -0.61499661207199096 0.47289583086967472 -0.63099026679992672
vn 0.90333020687103264 -0.32517138123512268 0.27974662184715272
vn 0.70264804363250736 -0.21450449526309968 0.67843461036682128
vn 0.23312164843082428 -0.16049587726593018 -0.95911175012588496
vn 0.97563904523849488 -0.1813175082206726 -0.12350056320428848
vn 0.57532179355621336 0.78672885894775392 -0.22374673187732696
vn -0.985028088092804 -0.17225871980190278 0.00683682272210717
vn -0.6380159258842468 0.7384381890296936 0.218276709318161
vn 0.26306524872779848 -0.9345412850379944 0.2396439015865326
vn 0.28211593627929688 -0.63261878490448 -0.72125172615051264
vn 0.98212116956710816 0.13175781071186066 -0.1344539225101471
vn 0.9866266250610352 -0.01459820196032524 -0.1623421460390091
vn -0.09363766759634018 -0.33850982785224916 0.93629217147827152
vn -0.16284406185150146 -0.97674137353897088 0.13949258625507354
vn -0.61938339471817016 -0.20723921060562132 0.75724238157272336
vn -0.79465132951736448 0.282599538564682 -0.53727716207504272
vn 0.54227131605148312 -0.66661471128463744 -0.5114359259605408
vn -0.29955694079399108 -0.42672693729400632 0.85332864522933952
vn -0.14226925373077392 0.8942233324050904 0.4244103729724884
vn 0.468711256980896 0.82228738069534304 0.322727769613266
vn 0.63613313436508176 0.61470067501068112 0.46634513139724728
vn -0.32920116186141968 0.91469830274581904 0.2344219833612442
vn -0.86733257770538336 -0.04939007759094238 -0.49527254700660704
vn 0.20156390964984892 0.82585650682449344 -0.52662414312362672
vn -0.14737363159656524 -0.70853269100189208 -0.6901177167892456
vn -0.96842545270919792 -0.23561733961105348 0.08146624267101288
vn -0.24473471939563752 0.86220037937164304 -0.44352614879608152
vn 0.05980006605386734 0.22705255448818208 0.97204482555389408
vn 0.51940810680389408 0.23257128894329072 0.82226872444152832
vn -0.2671499252319336 0.46325904130935672 0.84499818086624144
vn 0.01388029102236032 0.07674165815114975 -0.99695438146591184
vn 0.02554787509143352 0.02680306322872638 -0.9993141889572144
vn 0.02790489047765732 -0.9995425343513488 0.01166427973657846
vn -0.00737644452601671 -0.99995899200439456 0.00525625655427575
# 38 vertex normals

g obj_57500380
s 1
f 1//1 2//1 3//1
f 4//2 5//2 6//2
f 4//3 7//3 5//3
f 8//4 9//4 10//4
f 11//5 12//5 8//5
f 1//6 13//6 14//6
f 1//7 14//7 2//7
f 15//8 9//8 16//8
f 13//9 15//9 14//9
f 16//10 17//10 18//10
f 6//11 10//11 4//11
f 6//12 5//12 11//12
f 3//13 13//13 1//13
f 9//14 15//14 19//14
f 14//15 16//15 18//15
f 15//16 16//16 14//16
f 2//17 7//17 3//17
f 20//18 10//18 3//18
f 7//19 4//19 20//19
f 11//20 8//20 6//20
f 15//21 13//21 19//21
f 20//22 3//22 7//22
f 21//23 17//23 5//23
f 21//24 18//24 17//24
f 21//25 14//25 18//25
f 11//26 5//26 17//26
f 10//27 6//27 8//27
f 17//28 16//28 12//28
f 9//29 19//29 10//29
f 10//30 20//30 4//30
f 17//31 12//31 11//31
f 21//32 7//32 2//32
f 2//33 14//33 21//33
f 21//34 5//34 7//34
f 12//35 16//35 8//35
f 8//36 16//36 9//36
f 19//37 13//37 3//37
f 10//38 19//38 3//38
#38 polygons

