# Aspose.3D Wavefront OBJ Exporter
# Copyright 2004-2023 Aspose Pty Ltd.
# File created: 07/17/2023 21:10:58


#
# object obj_24748529
#

v -0.05670927092432976 -0.01944225840270519 0.39524772763252256
v -0.05680156871676445 0.06510724127292633 -0.0342523492872715
v -0.05650442466139793 -0.02868898585438728 -0.01569841615855693
v 0.05674456059932709 0.06436710059642792 -0.00518206367269158
v 0.05694450810551643 -0.00613818597048521 0.39578053355216976
v 0.05616332590579987 -0.0307100061327219 -0.02078732848167419
v 0.02749005891382694 0.06403603404760361 -0.05409683659672737
v -0.00344396545551717 -0.03872260823845863 -0.05936534702777863
v -0.01772424764931202 0.05714019760489464 0.39321586489677432
v 0.04048038274049759 0.04543391987681389 0.391717791557312
v -0.05102431029081345 0.0254070870578289 0.39300000667572024
v 0.04084039106965065 -0.04173114895820617 0.39436122775077816
v -0.02380411326885223 -0.06704434752464294 -0.01318245008587837
v -0.01215454377233982 -0.05915827676653862 0.3932368755340576
v 0.02772421576082706 -0.0625891238451004 -0.00697793904691934
# 15 vertices

vn -0.99999463558197024 -0.00325208599679172 -0.0004252966900821775
vn 0.99998164176940912 -0.00586215173825621 -0.00152946065645664
vn -0.22615285217761992 0.11765684187412262 -0.96696001291275024
vn 0.19823366403579712 0.97862130403518672 0.05480607226490974
vn -0.99158829450607296 0.12695378065109252 0.02520465292036533
vn -0.68811452388763424 0.72157365083694464 0.07635300606489182
vn 0.95003229379653936 0.30751532316207884 0.0535997599363327
vn 0.91051030158996576 -0.41286548972129824 0.02264596708118915
vn -0.76135963201522832 -0.64817416667938232 0.01420509442687034
vn -0.66419190168380736 -0.74680984020233152 0.03352926298975944
vn 0.74833452701568608 -0.6632458567619324 0.01001317333430051
vn 0.55082422494888304 -0.12349716573953628 -0.82543390989303584
vn 0.85531735420227056 0.07881928235292435 -0.51207393407821656
vn -0.64501893520355224 -0.15025323629379272 -0.74924927949905392
vn 0.31139823794364928 -0.94947201013565056 0.03916813805699348
vn 0.08410536497831345 -0.99631315469741824 0.01692144945263862
vn 0.13242033123970032 -0.86991268396377568 -0.4750967025756836
vn 0.4658192992210388 -0.6672943830490112 -0.58114594221115112
vn -0.59217298030853272 -0.54386699199676512 -0.59459215402603152
vn 0.00178829801734536 0.9998277425765992 0.01847105659544468
vn 0.00974184740334749 0.99987322092056272 -0.01259368937462568
vn -0.07777262479066849 0.05359720438718796 0.99552929401397712
vn -0.00636381143704056 -0.00012411443458404392 0.99997973442077632
vn 0.0260162204504013 0.00142655475065112 0.99966049194335936
vn 0.08036448806524277 0.03972860425710678 0.995973527431488
vn -0.00951312202960252 -0.03554478660225868 0.99932283163070672
# 26 vertex normals

g obj_24748529
s 1
f 1//1 2//1 3//1
f 4//2 5//2 6//2
f 7//3 8//3 2//3
f 4//4 9//4 10//4
f 1//5 11//5 2//5
f 11//6 9//6 2//6
f 10//7 5//7 4//7
f 6//8 5//8 12//8
f 3//9 13//9 1//9
f 1//10 13//10 14//10
f 12//11 15//11 6//11
f 7//12 6//12 8//12
f 4//13 6//13 7//13
f 2//14 8//14 3//14
f 15//15 12//15 14//15
f 13//16 15//16 14//16
f 13//17 8//17 15//17
f 8//18 6//18 15//18
f 8//19 13//19 3//19
f 4//20 2//20 9//20
f 7//21 2//21 4//21
f 10//22 14//22 5//22
f 11//23 14//23 9//23
f 9//24 14//24 10//24
f 14//25 11//25 1//25
f 12//26 5//26 14//26
#26 polygons

